Picture (Holland) - Live 81 and More DVD

a very nice dvd
I have received this in a trade

the band is currently active, please buy their albums and merchandise

cover is included in the torrent



cover is included in the torrent

Bombers ( Live 80)
Watchout ( Live 81)
Heavy Metal Ears ( Live 81 )
Simple Man ( Live 81 )
Bombers ( Live 81 )
You Can Go ( Live 81 )
Live in Rotterdam ( unknown date )
We just can´t Loose ( TV 86 )

Total time : 30 minutes

any additional info is welcome

I´m looking for some footage of the Eternal Dark era .. is there any ?

eneral
Complete name : C:\Picture DVD\Picture (Holland) - Live 81 and More DVD\video_ts\VTS_01_1.VOB
Format : MPEG-PS
File size : 754 MiB
Duration : 2mn 44s
Overall bit rate mode : Variable
Overall bit rate : 38.5 Mbps

Video
ID : 224 (0xE0)
Format : MPEG Video
Format version : Version 2
Format profile : Main@Main
Format settings, BVOP : Yes
Format settings, Matrix : Default
Duration : 2mn 44s
Bit rate mode : Variable
Bit rate : 37.5 Mbps
Width : 720 pixels
Height : 480 pixels
Display aspect ratio : 4:3
Frame rate : 29.970 fps
Standard : NTSC
Color space : YUV
Chroma subsampling : 4:2:0
Bit depth : 8 bits
Scan type : Progressive
Compression mode : Lossy
Bits/(Pixel*Frame) : 3.620
Stream size : 735 MiB (98%)

Audio
ID : 189 (0xBD)-128 (0x80)
Format : AC-3
Format/Info : Audio Coding 3
Mode extension : CM (complete main)
Muxing mode : DVD-Video
Duration : 2mn 44s
Bit rate mode : Constant
Bit rate : 192 Kbps
Channel(s) : 2 channels
Channel positions : Front: L R
Sampling rate : 48.0 KHz
Bit depth : 16 bits
Compression mode : Lossy
Stream size : 3.76 MiB (0%)